<?xml version="1.0" encoding="utf-8"?>
<!-- Generator: Adobe Illustrator 18.1.1, SVG Export Plug-In . SVG Version: 6.00 Build 0)  -->
<!DOCTYPE svg PUBLIC "-//W3C//DTD SVG 1.1//EN" "http://www.w3.org/Graphics/SVG/1.1/DTD/svg11.dtd">
<svg version="1.1" id="Layer_1" xmlns="http://www.w3.org/2000/svg" xmlns:xlink="http://www.w3.org/1999/xlink" x="0px" y="0px"
	 width="26px" height="26px" viewBox="0 0 26 26" enable-background="new 0 0 26 26" xml:space="preserve">
<path fill-rule="evenodd" clip-rule="evenodd" fill="#181616" d="M13,0.5C5.9,0.5,0.2,6.2,0.2,13.3c0,5.7,3.7,10.5,8.8,12.2
	c0.6,0.1,0.9-0.3,0.9-0.6c0-0.3,0-1.1,0-2.2C6.2,23.5,5.5,21,5.5,21c-0.6-1.5-1.4-1.9-1.4-1.9c-1.2-0.8,0.1-0.8,0.1-0.8
	c1.3,0.1,2,1.3,2,1.3c1.1,2,3,1.4,3.7,1.1c0.1-0.8,0.4-1.4,0.8-1.7c-2.8-0.3-5.8-1.4-5.8-6.3c0-1.4,0.5-2.5,1.3-3.4
	C6,8.9,5.6,7.6,6.3,5.8c0,0,1.1-0.3,3.5,1.3c1-0.3,2.1-0.4,3.2-0.4c1.1,0,2.2,0.1,3.2,0.4c2.4-1.7,3.5-1.3,3.5-1.3
	c0.7,1.8,0.3,3.1,0.1,3.4c0.8,0.9,1.3,2,1.3,3.4c0,4.9-3,6-5.9,6.3c0.5,0.4,0.9,1.2,0.9,2.4c0,1.7,0,3.1,0,3.5
	c0,0.3,0.2,0.7,0.9,0.6c5.1-1.7,8.8-6.5,8.8-12.2C25.8,6.2,20.1,0.5,13,0.5z"/>
</svg>
